<?xml version="1.0" standalone="no"?>
<!DOCTYPE svg PUBLIC "-//W3C//DTD SVG 20010904//EN"
 "http://www.w3.org/TR/2001/REC-SVG-20010904/DTD/svg10.dtd">
<svg version="1.0" xmlns="http://www.w3.org/2000/svg"
 width="210pt" height="210pt" viewBox="12 11 210 210"
 preserveAspectRatio="xMidYMid meet">
<metadata>
Created by potrace 1.16, written by Peter Selinger 2001-2019
</metadata>
<style> @media screen and (prefers-color-scheme: light) { g { fill: #373530 } } @media screen and (prefers-color-scheme: dark) { g { fill: #D5D5D5 } }</style>
<g transform="translate(0.000000,248.000000) scale(0.100000,-0.100000)"
fill="#808080" stroke="none">
<path d="M1747 2064 c-21 -12 -42 -43 -78 -122 -28 -59 -79 -154 -115 -212
l-64 -106 -57 -12 c-32 -7 -139 -19 -238 -28 -171 -14 -290 -29 -327 -40 -19
-6 -35 26 -99 199 -50 136 -71 179 -106 212 -38 34 -82 41 -127 20 -69 -33
-85 -117 -33 -174 13 -14 34 -55 46 -91 13 -36 45 -117 71 -180 26 -63 51
-130 55 -147 3 -18 11 -35 16 -39 5 -3 44 -74 86 -157 41 -84 121 -231 176
-327 55 -96 111 -194 124 -218 33 -57 76 -84 127 -78 47 5 93 46 101 90 45
225 196 565 396 897 123 203 209 376 209 420 0 87 -85 135 -163 93z m-397
-688 c0 -2 -29 -63 -64 -137 -35 -74 -77 -169 -92 -211 -16 -43 -32 -78 -36
-78 -8 0 -126 206 -181 317 l-36 71 52 7 c127 18 357 38 357 31z"/>
</g>
</svg>
