<?xml version="1.0" standalone="no"?>
<!DOCTYPE svg PUBLIC "-//W3C//DTD SVG 20010904//EN"
 "http://www.w3.org/TR/2001/REC-SVG-20010904/DTD/svg10.dtd">
<svg version="1.0" xmlns="http://www.w3.org/2000/svg"
 width="210pt" height="210pt" viewBox="12 22 210 210"
 preserveAspectRatio="xMidYMid meet">
<metadata>
Created by potrace 1.16, written by Peter Selinger 2001-2019
</metadata>
<style> @media screen and (prefers-color-scheme: light) { g { fill: #373530 } } @media screen and (prefers-color-scheme: dark) { g { fill: #D5D5D5 } }</style>
<g transform="translate(0.000000,248.000000) scale(0.100000,-0.100000)"
fill="#808080" stroke="none">
<path d="M1108 1931 l-33 -29 -3 -285 -3 -284 -114 -7 c-255 -14 -448 -52
-490 -96 -49 -52 -30 -143 37 -171 25 -10 42 -10 87 0 111 24 238 41 354 48
l118 6 -6 -26 c-4 -15 -8 -147 -9 -294 -1 -232 1 -272 15 -298 25 -45 53 -66
97 -72 35 -5 44 -1 78 29 42 39 43 50 29 227 -4 47 -4 163 0 258 l7 173 103 0
c56 0 136 -3 178 -6 l77 -7 -64 -59 c-40 -36 -67 -69 -71 -87 -9 -41 17 -96
54 -115 56 -29 82 -21 176 54 48 39 120 93 160 120 40 27 82 65 94 83 25 41
28 114 6 161 -38 81 -209 248 -308 302 -37 20 -57 25 -84 21 -46 -8 -81 -41
-89 -84 -10 -52 12 -91 74 -130 29 -19 51 -37 48 -40 -3 -3 -81 -2 -173 2
l-168 7 0 285 0 285 -33 29 c-45 40 -99 40 -144 0z"/>
</g>
</svg>
