<?xml version="1.0" standalone="no"?>
<!DOCTYPE svg PUBLIC "-//W3C//DTD SVG 20010904//EN"
 "http://www.w3.org/TR/2001/REC-SVG-20010904/DTD/svg10.dtd">
<svg version="1.0" xmlns="http://www.w3.org/2000/svg"
 width="210pt" height="210pt" viewBox="5 15 210 210"
 preserveAspectRatio="xMidYMid meet">
<metadata>
Created by potrace 1.16, written by Peter Selinger 2001-2019
</metadata>
<style> @media screen and (prefers-color-scheme: light) { g { fill: #373530 } } @media screen and (prefers-color-scheme: dark) { g { fill: #D5D5D5 } }</style>
<g transform="translate(0.000000,248.000000) scale(0.100000,-0.100000)"
fill="#808080" stroke="none">
<path d="M1496 2070 c-71 -21 -100 -86 -71 -158 23 -56 57 -82 109 -82 71 0
116 51 116 129 0 60 -38 100 -110 116 -8 2 -28 -1 -44 -5z"/>
<path d="M1078 2043 c-44 -27 -62 -71 -53 -128 10 -68 11 -246 1 -516 l-8
-226 -157 -8 c-87 -4 -170 -13 -187 -20 -66 -27 -92 -100 -59 -165 8 -16 63
-67 122 -113 154 -122 283 -262 283 -309 0 -11 15 -35 34 -54 46 -46 104 -48
163 -5 88 64 342 364 393 465 34 67 38 115 13 157 -30 50 -64 59 -233 59
l-152 0 8 283 c12 388 10 496 -10 535 -30 57 -104 78 -158 45z m253 -1100 c-6
-10 -31 -40 -55 -68 l-45 -50 -1 68 0 67 55 0 c50 0 55 -2 46 -17z m-321 -3
c0 -5 -2 -10 -4 -10 -3 0 -8 5 -11 10 -3 6 -1 10 4 10 6 0 11 -4 11 -10z"/>
<path d="M624 2020 c-56 -22 -83 -109 -48 -158 39 -57 141 -70 193 -26 57 47
50 137 -13 175 -32 20 -95 24 -132 9z"/>
</g>
</svg>
