<?xml version="1.0" standalone="no"?>
<!DOCTYPE svg PUBLIC "-//W3C//DTD SVG 20010904//EN"
 "http://www.w3.org/TR/2001/REC-SVG-20010904/DTD/svg10.dtd">
<svg version="1.0" xmlns="http://www.w3.org/2000/svg"
 width="210pt" height="210pt" viewBox="12 19 210 210"
 preserveAspectRatio="xMidYMid meet">
<metadata>
Created by potrace 1.16, written by Peter Selinger 2001-2019
</metadata>
<style> @media screen and (prefers-color-scheme: light) { g { fill: #373530 } } @media screen and (prefers-color-scheme: dark) { g { fill: #D5D5D5 } }</style>
<g transform="translate(0.000000,248.000000) scale(0.100000,-0.100000)"
fill="#808080" stroke="none">
<path d="M1604 2021 c-19 -11 -36 -33 -42 -53 -6 -18 -14 -131 -18 -250 l-6
-218 -27 19 c-14 10 -73 44 -131 76 -58 32 -120 71 -138 87 -26 22 -43 28 -78
28 -95 0 -149 -107 -90 -177 13 -15 51 -43 85 -62 33 -19 60 -36 58 -37 -1 -2
-90 -8 -197 -14 -195 -10 -480 -41 -512 -54 -48 -21 -65 -108 -31 -155 39 -52
55 -54 250 -32 98 11 239 23 313 26 74 3 161 8 193 11 l58 5 -45 -56 c-60 -73
-87 -128 -89 -179 -3 -82 65 -138 140 -113 32 10 43 21 68 73 31 62 114 167
146 185 18 9 18 -4 12 -283 -5 -262 -4 -296 11 -325 9 -18 25 -37 35 -43 30
-15 94 -12 120 6 43 31 51 70 51 254 0 94 4 316 10 493 5 177 11 416 14 530
l4 209 -26 30 c-36 39 -94 47 -138 19z"/>
</g>
</svg>
