<?xml version="1.0" standalone="no"?>
<!DOCTYPE svg PUBLIC "-//W3C//DTD SVG 20010904//EN"
 "http://www.w3.org/TR/2001/REC-SVG-20010904/DTD/svg10.dtd">
<svg version="1.0" xmlns="http://www.w3.org/2000/svg"
 width="210pt" height="210pt" viewBox="11 19 210 210"
 preserveAspectRatio="xMidYMid meet">
<metadata>
Created by potrace 1.16, written by Peter Selinger 2001-2019
</metadata>
<style> @media screen and (prefers-color-scheme: light) { g { fill: #373530 } } @media screen and (prefers-color-scheme: dark) { g { fill: #D5D5D5 } }</style>
<g transform="translate(0.000000,248.000000) scale(0.100000,-0.100000)"
fill="#808080" stroke="none">
<path d="M1114 2061 c-44 -27 -53 -61 -46 -189 2 -62 2 -112 -1 -112 -4 0 -40
11 -81 25 -41 14 -87 25 -103 25 -77 0 -131 -83 -99 -151 19 -41 34 -51 110
-73 32 -10 83 -28 113 -42 48 -21 54 -27 50 -46 -3 -13 -9 -96 -12 -184 l-7
-162 -172 2 c-151 1 -175 -1 -202 -18 -65 -39 -81 -112 -43 -189 50 -100 347
-455 413 -494 12 -7 38 -12 60 -13 36 0 47 8 180 138 77 77 176 164 218 195
85 62 106 88 115 139 10 63 -43 130 -129 162 -24 9 -83 25 -133 35 -70 14 -90
22 -89 35 0 9 1 60 2 114 1 53 6 103 11 111 7 11 27 0 92 -50 46 -34 107 -82
134 -105 28 -22 60 -46 72 -53 52 -27 131 -3 158 49 21 40 20 144 -2 181 -22
36 -63 53 -114 46 -32 -4 -45 -1 -67 18 -15 13 -79 60 -142 105 l-115 82 3
162 c3 135 1 168 -13 204 -28 69 -97 92 -161 53z m-90 -1131 c2 -3 1 -38 -2
-78 l-7 -73 -56 68 c-82 101 -82 96 -6 91 37 -2 68 -6 71 -8z m245 -52 c-15
-13 -25 -16 -27 -9 -8 23 7 40 29 34 l22 -6 -24 -19z"/>
</g>
</svg>
