<?xml version="1.0" standalone="no"?>
<!DOCTYPE svg PUBLIC "-//W3C//DTD SVG 20010904//EN"
 "http://www.w3.org/TR/2001/REC-SVG-20010904/DTD/svg10.dtd">
<svg version="1.0" xmlns="http://www.w3.org/2000/svg"
 width="210pt" height="210pt" viewBox="7 15 210 210"
 preserveAspectRatio="xMidYMid meet">
<metadata>
Created by potrace 1.16, written by Peter Selinger 2001-2019
</metadata>
<style> @media screen and (prefers-color-scheme: light) { g { fill: #373530 } } @media screen and (prefers-color-scheme: dark) { g { fill: #D5D5D5 } }</style>
<g transform="translate(0.000000,248.000000) scale(0.100000,-0.100000)"
fill="#808080" stroke="none">
<path d="M1221 2206 c-38 -21 -50 -55 -51 -138 l0 -78 -29 0 c-15 0 -49 -3
-75 -6 l-46 -7 0 59 c0 67 -15 96 -62 120 -56 29 -122 -1 -146 -66 -5 -13 -7
-65 -4 -115 l4 -90 -59 -47 c-45 -35 -65 -45 -85 -41 -66 13 -133 -63 -177
-201 -40 -124 -55 -239 -47 -351 19 -271 131 -467 319 -560 l77 -38 0 -99 c0
-112 13 -149 60 -173 37 -19 63 -19 100 0 45 23 60 62 60 152 l0 78 43 0 c23
0 70 3 105 7 l62 8 0 -84 c0 -95 16 -126 74 -146 44 -14 77 -5 112 32 l29 29
-2 127 -1 127 40 25 c63 39 159 148 201 227 54 103 77 203 77 332 0 323 -110
534 -331 639 l-78 37 -1 70 c0 90 -14 139 -47 165 -30 23 -86 26 -122 6z m-47
-598 c9 -230 22 -388 47 -591 14 -111 18 -172 11 -179 -5 -5 -47 -10 -93 -11
l-84 -2 -6 140 c-27 606 -31 767 -21 777 9 9 88 31 133 37 3 1 9 -77 13 -171z
m282 70 c84 -78 125 -198 127 -373 1 -141 -37 -258 -107 -324 -31 -29 -30 -30
-50 154 -31 284 -44 585 -26 585 6 0 31 -19 56 -42z m-635 -451 c6 -174 9
-320 5 -324 -13 -13 -78 64 -112 132 -23 47 -38 97 -46 152 l-12 83 32 31 c39
38 48 70 34 117 -13 40 -9 50 47 127 33 45 36 48 38 25 1 -14 7 -168 14 -343z"/>
</g>
</svg>
