<?xml version="1.0" standalone="no"?>
<!DOCTYPE svg PUBLIC "-//W3C//DTD SVG 20010904//EN"
 "http://www.w3.org/TR/2001/REC-SVG-20010904/DTD/svg10.dtd">
<svg version="1.0" xmlns="http://www.w3.org/2000/svg"
 width="210pt" height="210pt" viewBox="12 12 210 210"
 preserveAspectRatio="xMidYMid meet">
<metadata>
Created by potrace 1.16, written by Peter Selinger 2001-2019
</metadata>
<style> @media screen and (prefers-color-scheme: light) { g { fill: #373530 } } @media screen and (prefers-color-scheme: dark) { g { fill: #D5D5D5 } }</style>
<g transform="translate(0.000000,248.000000) scale(0.100000,-0.100000)"
fill="#808080" stroke="none">
<path d="M1635 2056 c-16 -7 -45 -30 -64 -49 -24 -26 -45 -37 -75 -42 -22 -3
-183 -33 -356 -67 l-315 -61 -64 41 c-74 48 -122 55 -164 22 -34 -27 -50 -76
-38 -117 8 -29 7 -32 -20 -44 -42 -17 -59 -46 -59 -101 0 -93 25 -139 223
-420 l97 -137 -80 -103 c-87 -112 -101 -148 -76 -196 22 -43 53 -62 100 -62
34 0 45 6 82 45 23 25 52 61 65 80 13 19 27 35 30 35 4 0 29 -35 55 -77 50
-81 123 -167 158 -185 38 -20 90 -27 128 -17 79 21 123 84 188 269 18 52 36
98 40 103 3 4 58 -33 121 -83 122 -97 263 -196 318 -225 69 -35 140 -14 167
50 19 47 1 102 -44 130 -126 77 -285 193 -431 316 l-43 35 39 80 c21 43 66
133 100 199 33 66 69 143 78 170 22 65 23 159 1 209 -12 29 -14 47 -7 71 12
45 4 79 -28 109 -34 32 -85 41 -126 22z m-327 -363 c-8 -10 -36 -45 -63 -78
-27 -33 -52 -64 -56 -69 -5 -5 -39 18 -78 50 -38 32 -67 60 -63 61 17 6 239
51 256 52 17 1 18 -1 4 -16z m182 -187 c-45 -86 -85 -156 -89 -156 -4 0 -18
11 -30 24 l-23 24 109 135 c59 74 110 133 111 131 2 -1 -33 -73 -78 -158z
m-592 -13 c69 -60 130 -111 136 -115 9 -6 -71 -116 -85 -118 -7 0 -199 263
-218 299 -14 25 -3 40 27 41 8 0 70 -48 140 -107z m365 -315 c37 -31 48 -46
44 -62 -9 -38 -88 -251 -96 -259 -4 -4 -38 40 -74 99 l-67 106 66 79 c36 44
69 79 72 79 4 0 29 -19 55 -42z"/>
</g>
</svg>
