<?xml version="1.0" standalone="no"?>
<!DOCTYPE svg PUBLIC "-//W3C//DTD SVG 20010904//EN"
 "http://www.w3.org/TR/2001/REC-SVG-20010904/DTD/svg10.dtd">
<svg version="1.0" xmlns="http://www.w3.org/2000/svg"
 width="210pt" height="210pt" viewBox="0 18 210 210"
 preserveAspectRatio="xMidYMid meet">
<metadata>
Created by potrace 1.16, written by Peter Selinger 2001-2019
</metadata>
<style> @media screen and (prefers-color-scheme: light) { g { fill: #373530 } } @media screen and (prefers-color-scheme: dark) { g { fill: #D5D5D5 } }</style>
<g transform="translate(0.000000,248.000000) scale(0.100000,-0.100000)"
fill="#808080" stroke="none">
<path d="M970 1684 c-105 -35 -217 -92 -240 -122 -32 -39 -27 -106 9 -143 40
-39 93 -39 164 0 59 33 201 84 223 79 23 -5 -30 -73 -79 -102 -23 -14 -76 -34
-117 -45 -91 -24 -120 -52 -120 -113 0 -32 7 -47 33 -73 l33 -33 -24 -28
c-100 -123 -77 -233 61 -294 58 -26 229 -60 300 -60 91 0 144 50 168 157 8 35
9 63 3 85 -11 37 -64 78 -101 78 -40 0 -84 -29 -99 -66 -14 -33 -16 -34 -57
-28 -86 14 -86 14 -5 85 90 76 108 103 108 159 0 36 6 50 39 85 53 57 82 116
88 180 11 105 -21 170 -102 206 -62 28 -190 25 -285 -7z"/>
</g>
</svg>
