<?xml version="1.0" standalone="no"?>
<!DOCTYPE svg PUBLIC "-//W3C//DTD SVG 20010904//EN"
 "http://www.w3.org/TR/2001/REC-SVG-20010904/DTD/svg10.dtd">
<svg version="1.0" xmlns="http://www.w3.org/2000/svg"
 width="210pt" height="210pt" viewBox="7 16 210 210"
 preserveAspectRatio="xMidYMid meet">
<metadata>
Created by potrace 1.16, written by Peter Selinger 2001-2019
</metadata>
<style> @media screen and (prefers-color-scheme: light) { g { fill: #373530 } } @media screen and (prefers-color-scheme: dark) { g { fill: #D5D5D5 } }</style>
<g transform="translate(0.000000,248.000000) scale(0.100000,-0.100000)"
fill="#808080" stroke="none">
<path d="M1064 2023 c-69 -14 -178 -144 -322 -383 -28 -47 -78 -123 -111 -170
-53 -74 -61 -91 -61 -130 0 -52 18 -83 62 -106 25 -13 61 -15 207 -13 148 3
176 1 178 -11 1 -8 9 -117 18 -242 12 -180 13 -235 3 -271 -15 -56 1 -101 46
-128 38 -23 67 -24 107 -3 50 25 69 81 69 203 0 92 -13 316 -24 423 -5 42 -28
35 176 57 191 21 278 82 278 196 0 130 -180 316 -399 411 -66 29 -77 37 -82
63 -9 46 -37 81 -74 97 -19 8 -38 13 -42 13 -4 -1 -17 -4 -29 -6z m216 -404
c32 -17 85 -56 117 -86 l58 -55 -26 -8 c-15 -4 -67 -11 -116 -15 l-90 -7 -6
69 c-9 86 -9 133 -1 133 3 0 32 -14 64 -31z m-280 -95 l0 -84 -61 0 c-33 0
-59 3 -57 8 16 38 104 170 110 166 4 -3 8 -43 8 -90z"/>
<path d="M1440 971 c-79 -26 -130 -73 -130 -123 0 -71 67 -127 134 -112 17 4
47 6 66 5 51 -2 96 29 111 78 10 34 9 44 -7 77 -11 21 -31 46 -45 57 -29 21
-92 30 -129 18z"/>
<path d="M687 946 c-48 -17 -62 -30 -77 -66 -17 -40 -5 -91 26 -121 23 -22 33
-24 106 -22 121 4 171 37 171 113 0 69 -50 110 -135 110 -29 -1 -70 -7 -91
-14z"/>
</g>
</svg>
