<?xml version="1.0" standalone="no"?>
<!DOCTYPE svg PUBLIC "-//W3C//DTD SVG 20010904//EN"
 "http://www.w3.org/TR/2001/REC-SVG-20010904/DTD/svg10.dtd">
<svg version="1.0" xmlns="http://www.w3.org/2000/svg"
 width="210pt" height="210pt" viewBox="8 21 210 210"
 preserveAspectRatio="xMidYMid meet">
<metadata>
Created by potrace 1.16, written by Peter Selinger 2001-2019
</metadata>
<style> @media screen and (prefers-color-scheme: light) { g { fill: #373530 } } @media screen and (prefers-color-scheme: dark) { g { fill: #D5D5D5 } }</style>
<g transform="translate(0.000000,248.000000) scale(0.100000,-0.100000)"
fill="#808080" stroke="none">
<path d="M1065 1990 c-220 -44 -401 -200 -524 -450 -40 -81 -49 -111 -61 -199
-13 -99 -15 -106 -49 -138 -20 -18 -59 -44 -86 -57 -71 -34 -90 -59 -90 -113
0 -38 5 -49 33 -74 47 -42 109 -41 185 5 l57 35 36 -72 c96 -192 281 -371 453
-439 81 -32 251 -32 332 0 167 66 280 216 344 454 13 50 26 92 27 93 2 1 27
15 56 30 148 80 291 329 241 421 -26 50 -94 67 -149 39 -21 -11 -35 -32 -55
-83 -15 -38 -37 -82 -49 -97 l-23 -28 -6 69 c-35 375 -259 618 -565 613 -37
-1 -85 -5 -107 -9z m252 -238 c122 -63 200 -234 206 -447 l2 -90 -38 -3 c-112
-9 -250 37 -372 123 -105 75 -234 109 -324 85 -55 -15 -64 -5 -25 29 48 43 64
72 64 115 0 35 7 46 54 92 57 55 90 75 171 106 69 26 203 21 262 -10z m-400
-553 c15 -5 61 -33 100 -60 129 -88 274 -139 401 -139 l65 0 -7 -32 c-9 -48
-68 -168 -102 -207 -69 -83 -200 -105 -309 -52 -119 58 -244 189 -310 325 -51
106 -50 112 14 147 57 30 101 36 148 18z"/>
</g>
</svg>
