<?xml version="1.0" standalone="no"?>
<!DOCTYPE svg PUBLIC "-//W3C//DTD SVG 20010904//EN"
 "http://www.w3.org/TR/2001/REC-SVG-20010904/DTD/svg10.dtd">
<svg version="1.0" xmlns="http://www.w3.org/2000/svg"
 width="210pt" height="210pt" viewBox="14 18 210 210"
 preserveAspectRatio="xMidYMid meet">
<metadata>
Created by potrace 1.16, written by Peter Selinger 2001-2019
</metadata>
<style> @media screen and (prefers-color-scheme: light) { g { fill: #373530 } } @media screen and (prefers-color-scheme: dark) { g { fill: #D5D5D5 } }</style>
<g transform="translate(0.000000,248.000000) scale(0.100000,-0.100000)"
fill="#808080" stroke="none">
<path d="M1093 2235 c-50 -22 -75 -69 -68 -130 3 -27 8 -75 11 -106 l6 -56
-82 -41 -82 -42 -45 15 c-58 20 -79 19 -128 -5 -44 -21 -79 -71 -134 -190 -39
-85 -60 -166 -68 -268 l-6 -83 -103 -98 c-57 -55 -109 -110 -115 -124 -30 -65
27 -147 101 -147 32 0 50 9 99 50 33 27 63 55 67 61 4 7 24 -22 49 -69 86
-165 205 -287 367 -376 l66 -37 -10 -42 c-14 -59 -5 -185 15 -224 18 -35 62
-63 97 -63 35 0 79 28 96 62 13 25 15 47 9 110 -9 104 -4 118 45 118 63 0 164
37 228 84 110 82 205 217 267 383 29 76 37 87 126 170 52 49 126 115 166 146
59 47 73 64 79 94 10 54 -19 104 -71 122 -51 17 -80 5 -173 -70 -35 -28 -65
-49 -66 -47 -2 1 -11 38 -19 80 -49 246 -259 443 -493 465 l-62 6 -7 87 c-8
102 -28 144 -80 166 -41 17 -42 17 -82 -1z m294 -497 c71 -26 154 -106 188
-181 30 -65 48 -182 39 -259 -6 -54 -8 -57 -38 -64 -47 -11 -194 -6 -256 9
l-55 12 -3 253 -2 252 34 0 c20 0 61 -10 93 -22z m-351 -326 c-3 -2 -23 10
-45 27 -46 37 -100 61 -136 61 -14 0 -25 3 -25 8 0 10 137 143 175 170 l30 20
3 -140 c1 -77 0 -143 -2 -146z m-125 -188 c35 -31 80 -67 100 -80 36 -25 36
-25 43 -116 9 -128 8 -186 -4 -193 -16 -10 -92 49 -162 124 -65 70 -131 184
-144 248 -6 28 -3 34 27 52 19 12 43 21 55 21 11 0 49 -25 85 -56z m512 -211
c59 -3 107 -9 107 -12 0 -16 -65 -109 -103 -149 -45 -47 -104 -82 -137 -82
-19 0 -20 6 -20 131 l0 131 23 -6 c12 -4 70 -10 130 -13z"/>
</g>
</svg>
