<?xml version="1.0" standalone="no"?>
<!DOCTYPE svg PUBLIC "-//W3C//DTD SVG 20010904//EN"
 "http://www.w3.org/TR/2001/REC-SVG-20010904/DTD/svg10.dtd">
<svg version="1.0" xmlns="http://www.w3.org/2000/svg"
 width="210pt" height="210pt" viewBox="19 31 210 210"
 preserveAspectRatio="xMidYMid meet">
<metadata>
Created by potrace 1.16, written by Peter Selinger 2001-2019
</metadata>
<style> @media screen and (prefers-color-scheme: light) { g { fill: #373530 } } @media screen and (prefers-color-scheme: dark) { g { fill: #D5D5D5 } }</style>
<g transform="translate(0.000000,248.000000) scale(0.100000,-0.100000)"
fill="#808080" stroke="none">
<path d="M1113 2095 l-35 -35 7 -124 7 -124 -31 -7 c-87 -19 -109 -135 -39
-211 19 -22 19 -22 -95 -245 l-114 -224 -97 -33 c-94 -32 -98 -32 -142 -17
-39 13 -49 13 -79 1 -42 -18 -67 -55 -67 -101 0 -92 104 -150 225 -127 26 5
47 7 47 4 0 -3 -13 -47 -30 -99 -47 -145 -39 -218 29 -276 58 -49 144 -55 395
-31 l69 7 -8 -59 c-4 -32 -16 -85 -27 -117 -24 -70 -18 -107 24 -142 40 -34
96 -34 136 0 38 32 68 119 83 240 6 49 15 93 21 96 10 7 274 19 418 19 112 0
169 21 194 69 37 70 17 119 -108 269 l-86 103 24 42 c44 74 129 300 134 352 4
44 1 55 -23 83 -31 37 -81 50 -126 32 -40 -17 -50 -34 -94 -165 -60 -179 -34
-187 -233 72 -169 220 -174 227 -170 267 3 22 11 62 18 87 12 42 12 49 -9 92
-16 33 -24 71 -27 139 -3 51 -10 108 -16 125 -13 45 -52 73 -100 73 -32 0 -47
-7 -75 -35z m31 -1182 c4 -60 9 -138 12 -174 l5 -66 -56 -7 c-133 -15 -235
-19 -235 -8 0 14 60 179 90 249 20 48 26 53 93 81 40 17 75 31 79 32 3 0 9
-48 12 -107z m368 -134 c34 -9 58 -10 92 -2 45 10 45 10 76 -29 22 -26 27 -39
18 -42 -7 -3 -84 -7 -170 -9 l-158 -5 0 79 0 79 48 -30 c26 -16 68 -34 94 -41z"/>
</g>
</svg>
