<?xml version="1.0" standalone="no"?>
<!DOCTYPE svg PUBLIC "-//W3C//DTD SVG 20010904//EN"
 "http://www.w3.org/TR/2001/REC-SVG-20010904/DTD/svg10.dtd">
<svg version="1.0" xmlns="http://www.w3.org/2000/svg"
 width="210pt" height="210pt" viewBox="10 26 210 210"
 preserveAspectRatio="xMidYMid meet">
<metadata>
Created by potrace 1.16, written by Peter Selinger 2001-2019
</metadata>
<style> @media screen and (prefers-color-scheme: light) { g { fill: #373530 } } @media screen and (prefers-color-scheme: dark) { g { fill: #D5D5D5 } }</style>
<g transform="translate(0.000000,248.000000) scale(0.100000,-0.100000)"
fill="#808080" stroke="none">
<path d="M1095 1840 c-16 -11 -40 -20 -53 -20 -29 0 -79 -48 -88 -84 -4 -17 0
-43 9 -66 l15 -39 -86 -165 c-80 -152 -90 -167 -122 -177 -54 -18 -146 -65
-253 -131 -117 -72 -138 -102 -118 -168 13 -45 42 -68 92 -76 27 -4 47 2 99
34 36 22 66 39 68 37 1 -1 -13 -49 -33 -107 -56 -168 -45 -261 36 -315 55 -36
132 -39 345 -15 98 12 301 26 449 32 170 6 290 15 325 24 103 27 148 113 104
198 -9 17 -72 97 -140 178 -68 81 -124 151 -124 156 0 11 81 126 100 141 8 7
30 15 48 19 18 3 46 20 62 36 24 24 30 38 30 75 0 36 -6 50 -29 74 -24 24 -38
29 -78 29 -89 0 -200 -71 -264 -169 l-15 -24 -80 109 c-45 60 -98 135 -119
167 l-38 58 16 35 c42 88 -1 173 -88 174 -23 0 -52 -8 -70 -20z m120 -536 c50
-69 92 -131 94 -136 8 -24 -68 5 -159 59 -52 31 -97 58 -99 60 -6 4 61 143 68
143 3 -1 47 -57 96 -126z m-166 -269 c47 -30 106 -61 130 -70 54 -19 173 -19
226 0 22 8 43 15 47 15 9 0 152 -169 147 -174 -2 -2 -119 -9 -259 -15 -140 -6
-302 -18 -360 -26 -58 -8 -119 -15 -137 -15 l-32 0 30 87 c36 101 105 253 115
253 3 0 45 -25 93 -55z"/>
</g>
</svg>
