<?xml version="1.0" standalone="no"?>
<!DOCTYPE svg PUBLIC "-//W3C//DTD SVG 20010904//EN"
 "http://www.w3.org/TR/2001/REC-SVG-20010904/DTD/svg10.dtd">
<svg version="1.0" xmlns="http://www.w3.org/2000/svg"
 width="210pt" height="210pt" viewBox="23 19 210 210"
 preserveAspectRatio="xMidYMid meet">
<metadata>
Created by potrace 1.16, written by Peter Selinger 2001-2019
</metadata>
<style> @media screen and (prefers-color-scheme: light) { g { fill: #373530 } } @media screen and (prefers-color-scheme: dark) { g { fill: #D5D5D5 } }</style>
<g transform="translate(0.000000,248.000000) scale(0.100000,-0.100000)"
fill="#808080" stroke="none">
<path d="M1172 1963 c-72 -35 -162 -163 -314 -448 -89 -165 -118 -236 -118
-283 0 -64 67 -132 130 -132 14 0 57 9 95 20 38 11 81 20 94 20 21 0 23 -3 17
-31 -3 -17 -6 -40 -6 -51 0 -19 -2 -19 -42 5 -60 34 -92 40 -132 23 -61 -25
-85 -109 -47 -158 11 -13 62 -51 115 -83 l96 -60 0 -58 c0 -94 34 -136 108
-137 35 0 49 6 73 30 36 36 17 43 228 -92 84 -55 165 -101 180 -104 34 -6 92
24 108 56 21 42 16 87 -14 120 -23 24 -416 282 -447 293 -9 3 -9 238 0 261 4
11 48 15 202 18 182 3 201 5 244 26 63 31 92 72 92 131 0 25 -9 62 -18 81 -29
56 -232 248 -348 330 -104 73 -107 76 -108 113 -1 102 -94 157 -188 110z m305
-507 c40 -33 70 -63 67 -68 -6 -10 -73 -10 -166 -1 l-68 6 6 56 c3 31 7 71 10
89 l5 33 37 -27 c20 -15 69 -55 109 -88z m-382 -42 c-4 -32 -11 -43 -28 -48
-45 -12 -46 -5 -9 63 39 75 50 70 37 -15z"/>
</g>
</svg>
