<?xml version="1.0" standalone="no"?>
<!DOCTYPE svg PUBLIC "-//W3C//DTD SVG 20010904//EN"
 "http://www.w3.org/TR/2001/REC-SVG-20010904/DTD/svg10.dtd">
<svg version="1.0" xmlns="http://www.w3.org/2000/svg"
 width="210pt" height="210pt" viewBox="4 10 210 210"
 preserveAspectRatio="xMidYMid meet">
<metadata>
Created by potrace 1.16, written by Peter Selinger 2001-2019
</metadata>
<style> @media screen and (prefers-color-scheme: light) { g { fill: #373530 } } @media screen and (prefers-color-scheme: dark) { g { fill: #D5D5D5 } }</style>
<g transform="translate(0.000000,248.000000) scale(0.100000,-0.100000)"
fill="#808080" stroke="none">
<path d="M941 2134 c-38 -27 -53 -76 -40 -129 11 -42 9 -47 -21 -97 -18 -29
-93 -177 -166 -328 -145 -298 -153 -324 -114 -388 27 -44 74 -62 157 -62 60 0
90 5 182 26 l24 5 -6 -267 -6 -267 35 -35 c31 -31 39 -34 75 -29 50 7 86 39
98 86 5 20 12 148 15 285 4 152 10 252 16 256 6 3 71 14 145 24 254 33 325 73
325 184 0 76 -42 135 -246 342 -162 164 -193 201 -199 233 -9 49 -37 83 -80
98 -19 7 -38 21 -41 31 -13 43 -109 63 -153 32z m373 -596 c48 -51 83 -94 79
-95 -20 -6 -208 -32 -211 -29 -1 2 0 56 4 119 8 139 3 139 128 5z m-349 -105
l-6 -52 -51 -11 c-28 -6 -52 -9 -53 -8 -1 2 23 57 54 123 l56 120 3 -60 c2
-33 1 -83 -3 -112z"/>
</g>
</svg>
