<?xml version="1.0" standalone="no"?>
<!DOCTYPE svg PUBLIC "-//W3C//DTD SVG 20010904//EN"
 "http://www.w3.org/TR/2001/REC-SVG-20010904/DTD/svg10.dtd">
<svg version="1.0" xmlns="http://www.w3.org/2000/svg"
 width="210pt" height="210pt" viewBox="9 19 210 210"
 preserveAspectRatio="xMidYMid meet">
<metadata>
Created by potrace 1.16, written by Peter Selinger 2001-2019
</metadata>
<style> @media screen and (prefers-color-scheme: light) { g { fill: #373530 } } @media screen and (prefers-color-scheme: dark) { g { fill: #D5D5D5 } }</style>
<g transform="translate(0.000000,248.000000) scale(0.100000,-0.100000)"
fill="#808080" stroke="none">
<path d="M1658 2005 c-15 -9 -43 -39 -62 -68 -20 -28 -49 -67 -65 -86 l-28
-34 -31 22 c-17 12 -57 34 -89 49 -50 23 -70 27 -148 26 -180 -2 -361 -90
-524 -254 -175 -177 -217 -253 -215 -395 1 -64 7 -96 31 -156 29 -75 107 -201
144 -235 10 -9 19 -22 19 -27 0 -6 -27 -54 -60 -108 -101 -163 -112 -219 -56
-275 27 -27 42 -34 73 -34 53 0 78 21 114 93 17 34 47 88 65 119 l35 57 61
-29 c34 -16 86 -34 117 -41 81 -17 244 -7 315 19 185 67 333 226 377 402 19
77 17 258 -4 350 -10 41 -33 112 -51 158 l-34 83 22 27 c13 15 53 67 89 115
58 77 67 94 67 130 -1 86 -85 133 -162 92z m-355 -318 c65 -28 66 -39 1 -115
-59 -69 -397 -460 -448 -517 l-26 -30 -25 30 c-44 52 -88 153 -93 211 -4 44
-2 54 11 54 31 0 77 51 89 98 16 66 115 163 224 220 118 61 201 76 267 49z
m221 -472 c1 -104 -2 -127 -21 -167 -31 -68 -111 -143 -190 -181 -59 -27 -78
-31 -148 -30 -78 1 -156 20 -162 40 -3 9 85 115 372 446 l110 126 19 -57 c14
-42 19 -87 20 -177z"/>
</g>
</svg>
