<?xml version="1.0" standalone="no"?>
<!DOCTYPE svg PUBLIC "-//W3C//DTD SVG 20010904//EN"
 "http://www.w3.org/TR/2001/REC-SVG-20010904/DTD/svg10.dtd">
<svg version="1.0" xmlns="http://www.w3.org/2000/svg"
 width="210pt" height="210pt" viewBox="7 16 210 210"
 preserveAspectRatio="xMidYMid meet">
<metadata>
Created by potrace 1.16, written by Peter Selinger 2001-2019
</metadata>
<style> @media screen and (prefers-color-scheme: light) { g { fill: #373530 } } @media screen and (prefers-color-scheme: dark) { g { fill: #D5D5D5 } }</style>
<g transform="translate(0.000000,248.000000) scale(0.100000,-0.100000)"
fill="#808080" stroke="none">
<path d="M1694 1951 c-36 -22 -58 -75 -49 -114 5 -20 -15 -51 -128 -193 -73
-93 -153 -198 -176 -232 -59 -88 -132 -242 -177 -378 -22 -63 -41 -114 -44
-114 -3 0 -22 33 -41 73 -19 39 -92 185 -161 322 -158 313 -238 490 -238 528
0 22 -11 40 -40 68 -47 45 -79 55 -129 43 -38 -10 -81 -61 -81 -97 0 -31 179
-416 336 -725 79 -155 163 -328 185 -385 52 -131 83 -184 122 -208 67 -40 149
-12 186 64 11 23 34 94 50 157 52 200 114 364 182 482 21 36 109 155 195 265
86 109 167 221 180 248 32 68 32 133 -1 169 -45 49 -117 60 -171 27z"/>
</g>
</svg>
