<?xml version="1.0" standalone="no"?>
<!DOCTYPE svg PUBLIC "-//W3C//DTD SVG 20010904//EN"
 "http://www.w3.org/TR/2001/REC-SVG-20010904/DTD/svg10.dtd">
<svg version="1.0" xmlns="http://www.w3.org/2000/svg"
 width="210pt" height="210pt" viewBox="5 10 210 210"
 preserveAspectRatio="xMidYMid meet">
<metadata>
Created by potrace 1.16, written by Peter Selinger 2001-2019
</metadata>
<style> @media screen and (prefers-color-scheme: light) { g { fill: #373530 } } @media screen and (prefers-color-scheme: dark) { g { fill: #D5D5D5 } }</style>
<g transform="translate(0.000000,248.000000) scale(0.100000,-0.100000)"
fill="#808080" stroke="none">
<path d="M1063 2031 c-88 -32 -185 -114 -266 -223 -12 -16 -26 -28 -32 -28
-18 0 -62 -52 -69 -82 -15 -63 43 -128 114 -128 42 0 103 33 134 72 l26 33 0
-144 0 -143 -142 7 c-79 4 -153 11 -166 16 -91 35 -184 -43 -152 -127 32 -83
94 -104 308 -104 l154 0 -3 -251 -4 -251 33 -29 c45 -40 99 -40 144 0 l33 29
9 246 9 246 134 0 c120 0 137 -2 162 -21 76 -56 182 2 185 101 1 48 -26 88
-78 114 -30 15 -69 19 -220 23 l-183 6 -7 199 c-4 110 -5 202 -2 205 11 11 28
-11 62 -80 53 -106 160 -262 190 -275 64 -30 133 -2 154 62 14 43 7 59 -73
182 -35 54 -77 126 -93 159 -37 78 -134 177 -190 193 -57 17 -110 14 -171 -7z"/>
</g>
</svg>
