<?xml version="1.0" standalone="no"?>
<!DOCTYPE svg PUBLIC "-//W3C//DTD SVG 20010904//EN"
 "http://www.w3.org/TR/2001/REC-SVG-20010904/DTD/svg10.dtd">
<svg version="1.0" xmlns="http://www.w3.org/2000/svg"
 width="210pt" height="210pt" viewBox="12 41 210 210"
 preserveAspectRatio="xMidYMid meet">
<metadata>
Created by potrace 1.16, written by Peter Selinger 2001-2019
</metadata>
<style> @media screen and (prefers-color-scheme: light) { g { fill: #373530 } } @media screen and (prefers-color-scheme: dark) { g { fill: #D5D5D5 } }</style>
<g transform="translate(0.000000,248.000000) scale(0.100000,-0.100000)"
fill="#808080" stroke="none">
<path d="M1104 2001 c-63 -23 -150 -78 -209 -132 l-44 -41 -7 26 c-3 14 -22
39 -40 56 -47 41 -101 41 -146 1 -29 -25 -32 -34 -29 -72 8 -109 2 -468 -8
-509 -17 -66 -25 -361 -13 -449 9 -62 16 -80 41 -105 24 -23 40 -31 69 -31 46
0 89 26 104 63 6 15 14 144 19 287 4 143 13 277 19 297 48 163 170 332 282
389 53 27 75 25 82 -8 29 -136 31 -200 31 -813 0 -697 -1 -680 60 -728 53 -42
139 -21 168 40 8 18 27 94 42 168 15 74 35 157 45 183 22 56 65 117 84 117 18
0 23 -20 41 -186 20 -174 69 -383 97 -413 47 -51 120 -51 162 0 32 38 32 60 2
179 -13 52 -29 136 -35 185 -27 211 -33 248 -47 296 -17 58 -74 126 -121 146
-71 29 -177 11 -249 -42 l-22 -16 -5 348 c-7 466 -30 634 -101 719 -16 20 -44
43 -62 50 -46 19 -149 17 -210 -5z"/>
</g>
</svg>
