<?xml version="1.0" standalone="no"?>
<!DOCTYPE svg PUBLIC "-//W3C//DTD SVG 20010904//EN"
 "http://www.w3.org/TR/2001/REC-SVG-20010904/DTD/svg10.dtd">
<svg version="1.0" xmlns="http://www.w3.org/2000/svg"
 width="210pt" height="210pt" viewBox="12 16 210 210"
 preserveAspectRatio="xMidYMid meet">
<metadata>
Created by potrace 1.16, written by Peter Selinger 2001-2019
</metadata>
<style> @media screen and (prefers-color-scheme: light) { g { fill: #373530 } } @media screen and (prefers-color-scheme: dark) { g { fill: #D5D5D5 } }</style>
<g transform="translate(0.000000,248.000000) scale(0.100000,-0.100000)"
fill="#808080" stroke="none">
<path d="M1264 1936 c-92 -40 -82 -154 21 -234 19 -15 23 -23 14 -26 -20 -6
-360 -25 -579 -33 -217 -7 -241 -14 -259 -80 -14 -50 10 -101 59 -126 39 -20
107 -19 585 8 138 7 286 13 330 12 44 -1 96 1 116 6 32 6 42 2 112 -46 l77
-54 -57 -38 c-32 -21 -78 -55 -103 -76 l-45 -38 -60 9 c-117 19 -500 24 -727
10 -188 -11 -223 -16 -244 -32 -49 -39 -48 -122 3 -167 l28 -24 195 9 c216 10
600 8 612 -4 4 -4 -32 -56 -79 -117 -95 -122 -117 -163 -108 -205 7 -32 50
-75 83 -83 53 -13 87 10 159 106 146 194 198 249 250 266 47 16 54 24 85 96 8
19 37 45 78 71 148 95 178 125 187 191 10 79 -35 134 -217 263 -169 119 -332
245 -374 290 -57 60 -87 70 -142 46z"/>
</g>
</svg>
