<?xml version="1.0" standalone="no"?>
<!DOCTYPE svg PUBLIC "-//W3C//DTD SVG 20010904//EN"
 "http://www.w3.org/TR/2001/REC-SVG-20010904/DTD/svg10.dtd">
<svg version="1.0" xmlns="http://www.w3.org/2000/svg"
 width="210pt" height="210pt" viewBox="12 40 210 210"
 preserveAspectRatio="xMidYMid meet">
<metadata>
Created by potrace 1.16, written by Peter Selinger 2001-2019
</metadata>
<style> @media screen and (prefers-color-scheme: light) { g { fill: #373530 } } @media screen and (prefers-color-scheme: dark) { g { fill: #D5D5D5 } }</style>
<g transform="translate(0.000000,248.000000) scale(0.100000,-0.100000)"
fill="#808080" stroke="none">
<path d="M1079 1890 c-66 -11 -135 -44 -200 -95 l-55 -44 -13 35 c-14 38 -62
74 -99 74 -33 0 -79 -26 -93 -52 -8 -15 -13 -87 -14 -213 -1 -169 -3 -199 -25
-270 -48 -161 -26 -451 40 -517 47 -46 141 -32 167 25 7 14 14 122 18 258 l6
234 40 80 c92 184 225 296 325 271 66 -17 78 -177 71 -911 -6 -586 -6 -580 48
-623 32 -26 83 -29 124 -7 41 20 76 68 181 245 51 85 122 198 158 249 52 77
65 102 65 134 0 78 -93 130 -159 88 -19 -11 -64 -69 -110 -139 -44 -66 -81
-121 -84 -121 -3 -1 -6 198 -6 442 -2 574 -16 683 -100 777 -59 65 -178 99
-285 80z"/>
</g>
</svg>
