<?xml version="1.0" standalone="no"?>
<!DOCTYPE svg PUBLIC "-//W3C//DTD SVG 20010904//EN"
 "http://www.w3.org/TR/2001/REC-SVG-20010904/DTD/svg10.dtd">
<svg version="1.0" xmlns="http://www.w3.org/2000/svg"
 width="210pt" height="210pt" viewBox="12 8 210 210"
 preserveAspectRatio="xMidYMid meet">
<metadata>
Created by potrace 1.16, written by Peter Selinger 2001-2019
</metadata>
<style> @media screen and (prefers-color-scheme: light) { g { fill: #373530 } } @media screen and (prefers-color-scheme: dark) { g { fill: #D5D5D5 } }</style>
<g transform="translate(0.000000,248.000000) scale(0.100000,-0.100000)"
fill="#808080" stroke="none">
<path d="M1360 2043 c-100 -6 -342 -32 -554 -60 -164 -21 -216 -31 -240 -48
-39 -26 -55 -82 -38 -127 10 -28 9 -34 -18 -65 -19 -21 -30 -45 -30 -63 0 -38
50 -174 84 -228 14 -23 26 -45 25 -49 0 -5 -34 -37 -76 -72 -86 -74 -100 -99
-84 -153 15 -48 53 -78 100 -78 40 0 59 11 138 77 l51 44 60 -98 c238 -389
301 -473 373 -494 51 -16 104 0 144 41 18 18 68 113 120 228 l90 196 45 8
c190 33 258 67 381 189 49 49 94 101 100 116 31 82 -55 174 -135 143 -14 -5
-56 -41 -93 -81 -60 -64 -143 -129 -164 -129 -4 0 7 33 25 73 94 207 143 371
134 452 -17 146 -141 196 -438 178z m216 -227 c15 -40 -172 -476 -205 -476
-27 0 -118 47 -184 93 -103 74 -163 100 -242 104 -45 3 -87 -1 -118 -10 l-47
-15 -26 43 c-14 24 -34 70 -45 102 -12 32 -25 66 -30 75 -7 13 -6 18 2 18 7 0
103 12 213 26 414 53 671 68 682 40z m-504 -565 c56 -38 127 -79 156 -91 28
-12 52 -26 52 -30 0 -4 -24 -58 -53 -120 l-53 -113 -41 64 c-74 118 -213 348
-213 354 0 3 11 5 24 5 13 0 71 -31 128 -69z"/>
</g>
</svg>
