<?xml version="1.0" standalone="no"?>
<!DOCTYPE svg PUBLIC "-//W3C//DTD SVG 20010904//EN"
 "http://www.w3.org/TR/2001/REC-SVG-20010904/DTD/svg10.dtd">
<svg version="1.0" xmlns="http://www.w3.org/2000/svg"
 width="210pt" height="210pt" viewBox="-4 7 210 210"
 preserveAspectRatio="xMidYMid meet">
<metadata>
Created by potrace 1.16, written by Peter Selinger 2001-2019
</metadata>
<style> @media screen and (prefers-color-scheme: light) { g { fill: #373530 } } @media screen and (prefers-color-scheme: dark) { g { fill: #D5D5D5 } }</style>
<g transform="translate(0.000000,248.000000) scale(0.100000,-0.100000)"
fill="#808080" stroke="none">
<path d="M1042 2305 c-33 -14 -62 -63 -62 -104 0 -10 -62 -93 -138 -184 -269
-322 -432 -584 -432 -695 0 -74 60 -132 137 -132 21 0 99 9 173 20 102 15 187
20 348 20 l212 0 -81 -97 c-152 -184 -338 -488 -347 -568 -4 -41 -1 -48 31
-80 28 -28 43 -35 75 -35 56 0 83 26 133 126 55 112 197 326 289 434 39 47
111 123 160 170 95 91 109 118 94 179 -16 62 -52 77 -201 84 -196 10 -533 8
-639 -4 -53 -6 -98 -8 -101 -5 -15 15 179 285 351 486 58 69 117 147 131 174
45 89 27 184 -40 212 -42 17 -51 17 -93 -1z"/>
</g>
</svg>
