<?xml version="1.0" standalone="no"?>
<!DOCTYPE svg PUBLIC "-//W3C//DTD SVG 20010904//EN"
 "http://www.w3.org/TR/2001/REC-SVG-20010904/DTD/svg10.dtd">
<svg version="1.0" xmlns="http://www.w3.org/2000/svg"
 width="210pt" height="210pt" viewBox="9 19 210 210"
 preserveAspectRatio="xMidYMid meet">
<metadata>
Created by potrace 1.16, written by Peter Selinger 2001-2019
</metadata>
<style> @media screen and (prefers-color-scheme: light) { g { fill: #373530 } } @media screen and (prefers-color-scheme: dark) { g { fill: #D5D5D5 } }</style>
<g transform="translate(0.000000,248.000000) scale(0.100000,-0.100000)"
fill="#808080" stroke="none">
<path d="M1070 2122 c-49 -24 -92 -86 -200 -289 -70 -131 -109 -191 -147 -229
-28 -30 -54 -66 -58 -83 -14 -67 59 -142 123 -126 81 19 143 95 262 315 40 74
73 136 75 138 1 1 21 -31 45 -70 65 -110 210 -317 256 -365 35 -37 46 -43 82
-43 62 0 107 43 107 102 0 38 -8 55 -66 133 -97 132 -180 258 -239 365 -29 52
-62 106 -74 118 -48 53 -106 65 -166 34z"/>
</g>
</svg>
