<?xml version="1.0" standalone="no"?>
<!DOCTYPE svg PUBLIC "-//W3C//DTD SVG 20010904//EN"
 "http://www.w3.org/TR/2001/REC-SVG-20010904/DTD/svg10.dtd">
<svg version="1.0" xmlns="http://www.w3.org/2000/svg"
 width="210pt" height="210pt" viewBox="7.5 10 210 210"
 preserveAspectRatio="xMidYMid meet">
<metadata>
Created by potrace 1.16, written by Peter Selinger 2001-2019
</metadata>
<style> @media screen and (prefers-color-scheme: light) { g { fill: #373530 } } @media screen and (prefers-color-scheme: dark) { g { fill: #D5D5D5 } }</style>
<g transform="translate(0.000000,248.000000) scale(0.100000,-0.100000)"
fill="#808080" stroke="none">
<path d="M664 1976 c-45 -45 -47 -100 -6 -148 16 -18 59 -78 95 -133 37 -55
77 -113 91 -129 l23 -30 -56 -34 c-82 -49 -138 -98 -190 -166 -25 -33 -61 -77
-79 -97 -60 -68 -49 -152 23 -186 29 -14 41 -14 75 -4 33 10 53 28 114 105 80
100 122 139 173 164 31 15 33 14 67 -12 42 -32 91 -95 221 -286 247 -364 302
-418 383 -376 43 22 62 54 62 104 0 59 -23 108 -62 132 -18 11 -63 61 -99 112
l-67 92 79 38 c134 63 228 176 265 317 18 73 8 118 -33 151 -42 33 -98 27
-139 -14 -19 -19 -34 -44 -34 -57 0 -13 -11 -46 -24 -74 -53 -113 -183 -179
-254 -129 -13 8 -52 61 -89 117 -36 56 -102 152 -147 212 -45 61 -115 159
-156 219 -40 60 -87 117 -104 127 -49 30 -92 25 -132 -15z"/>
</g>
</svg>
