<?xml version="1.0" standalone="no"?>
<!DOCTYPE svg PUBLIC "-//W3C//DTD SVG 20010904//EN"
 "http://www.w3.org/TR/2001/REC-SVG-20010904/DTD/svg10.dtd">
<svg version="1.0" xmlns="http://www.w3.org/2000/svg"
 width="210pt" height="210pt" viewBox="10 12 210 210"
 preserveAspectRatio="xMidYMid meet">
<metadata>
Created by potrace 1.16, written by Peter Selinger 2001-2019
</metadata>
<style> @media screen and (prefers-color-scheme: light) { g { fill: #373530 } } @media screen and (prefers-color-scheme: dark) { g { fill: #D5D5D5 } }</style>
<g transform="translate(0.000000,248.000000) scale(0.100000,-0.100000)"
fill="#808080" stroke="none">
<path d="M1093 2164 c-46 -23 -66 -71 -57 -142 l6 -58 -54 -12 c-164 -37 -298
-152 -350 -300 -11 -31 -31 -72 -46 -91 -32 -43 -71 -137 -72 -173 0 -22 -5
-28 -22 -29 -83 -2 -128 -20 -151 -58 -29 -50 -19 -106 27 -143 15 -13 40 -18
92 -18 l71 0 36 -72 c92 -185 246 -310 438 -356 l70 -17 -8 -55 c-15 -108 -11
-139 25 -171 52 -46 126 -36 161 22 11 18 23 62 27 98 10 99 14 105 77 118
116 24 238 107 299 203 36 56 78 187 78 243 0 23 4 47 8 53 13 21 46 19 85 -5
52 -32 100 -24 144 23 42 46 51 94 26 142 -30 58 -70 74 -185 74 l-97 0 -16
58 c-73 260 -198 407 -388 456 l-52 13 -7 66 c-7 78 -19 102 -61 127 -38 24
-62 25 -104 4z m-50 -601 c4 -97 6 -178 4 -179 -1 -1 -49 -4 -105 -7 l-104 -5
6 23 c3 12 1 36 -5 53 -8 24 -7 37 6 61 9 18 15 48 14 69 -4 52 31 95 105 132
32 17 62 30 66 30 4 0 10 -80 13 -177z m273 161 c69 -33 151 -160 178 -275 6
-29 19 -26 -160 -44 l-61 -7 -7 32 c-11 57 -7 310 5 310 6 0 26 -7 45 -16z
m214 -529 c0 -2 -5 -28 -11 -57 -23 -110 -79 -178 -176 -212 l-41 -15 -6 47
c-3 26 -8 86 -12 134 l-6 87 33 5 c70 12 219 19 219 11z m-466 -72 c3 -27 8
-83 12 -127 l6 -79 -29 7 c-59 15 -134 56 -183 102 -54 51 -96 111 -85 122 3
4 63 9 133 13 70 3 130 6 134 7 3 1 9 -19 12 -45z"/>
</g>
</svg>
