<?xml version="1.0" standalone="no"?>
<!DOCTYPE svg PUBLIC "-//W3C//DTD SVG 20010904//EN"
 "http://www.w3.org/TR/2001/REC-SVG-20010904/DTD/svg10.dtd">
<svg version="1.0" xmlns="http://www.w3.org/2000/svg"
 width="210pt" height="210pt" viewBox="10 21 210 210"
 preserveAspectRatio="xMidYMid meet">
<metadata>
Created by potrace 1.16, written by Peter Selinger 2001-2019
</metadata>
<style> @media screen and (prefers-color-scheme: light) { g { fill: #373530 } } @media screen and (prefers-color-scheme: dark) { g { fill: #D5D5D5 } }</style>
<g transform="translate(0.000000,248.000000) scale(0.100000,-0.100000)"
fill="#808080" stroke="none">
<path d="M1609 1935 c-14 -7 -35 -34 -48 -58 l-23 -45 -73 39 c-165 89 -345
90 -530 0 -44 -21 -91 -47 -105 -58 l-24 -21 -48 43 c-62 56 -123 85 -193 92
-88 9 -135 -30 -135 -111 0 -50 33 -84 99 -101 46 -12 101 -47 101 -64 0 -3
-25 -39 -54 -79 -31 -40 -62 -96 -72 -126 -16 -51 -16 -57 0 -99 13 -36 15
-53 7 -88 -32 -138 9 -299 113 -444 l36 -50 -64 -65 c-80 -83 -96 -107 -96
-148 0 -67 44 -112 110 -112 46 0 56 7 131 96 39 46 75 84 80 84 5 0 31 -14
58 -30 182 -113 425 -99 611 33 l35 25 126 -123 c137 -133 161 -147 222 -121
40 16 67 59 67 107 0 28 -18 50 -134 168 -128 129 -134 137 -119 156 29 38 92
180 114 260 17 61 22 106 21 185 -1 151 -33 264 -111 386 -13 19 -10 26 19 70
25 35 35 62 38 101 4 49 2 55 -28 83 -36 34 -86 40 -131 15z m-302 -230 c28
-8 61 -23 73 -33 l22 -18 -122 -148 c-99 -119 -126 -146 -134 -134 -6 8 -44
53 -84 100 l-72 86 11 48 c7 27 13 54 15 61 5 18 122 52 185 52 30 1 78 -6
106 -14z m279 -277 c38 -132 20 -283 -50 -417 l-23 -43 -99 106 c-54 59 -100
111 -102 116 -4 11 240 309 249 304 3 -2 14 -32 25 -66z m-662 -129 l95 -111
-101 -122 c-55 -66 -104 -122 -108 -124 -12 -5 -56 65 -75 117 -20 56 -19 138
1 198 15 44 78 153 88 153 3 0 47 -50 100 -111z m346 -389 l102 -110 -68 -33
c-61 -28 -79 -32 -154 -32 -72 0 -93 4 -133 26 l-48 25 96 117 c53 64 98 117
100 117 1 0 49 -50 105 -110z"/>
</g>
</svg>
