<?xml version="1.0" standalone="no"?>
<!DOCTYPE svg PUBLIC "-//W3C//DTD SVG 20010904//EN"
 "http://www.w3.org/TR/2001/REC-SVG-20010904/DTD/svg10.dtd">
<svg version="1.0" xmlns="http://www.w3.org/2000/svg"
 width="210pt" height="210pt" viewBox="8 19 210 210"
 preserveAspectRatio="xMidYMid meet">
<metadata>
Created by potrace 1.16, written by Peter Selinger 2001-2019
</metadata>
<style> @media screen and (prefers-color-scheme: light) { g { fill: #373530 } } @media screen and (prefers-color-scheme: dark) { g { fill: #D5D5D5 } }</style>
<g transform="translate(0.000000,248.000000) scale(0.100000,-0.100000)"
fill="#808080" stroke="none">
<path d="M1581 1281 c-55 -59 -127 -223 -187 -424 -30 -104 -18 -113 -130 88
-42 77 -86 151 -96 165 -69 89 -188 77 -245 -25 -12 -22 -33 -78 -46 -125 -23
-76 -26 -82 -35 -60 -110 280 -142 330 -214 330 -33 0 -87 -36 -98 -66 -16
-40 -12 -62 24 -143 19 -42 82 -190 141 -328 64 -152 118 -264 134 -282 55
-59 152 -46 186 24 9 21 21 97 30 196 21 229 19 224 70 135 56 -99 127 -198
164 -229 71 -59 149 -59 209 1 41 41 75 123 137 324 19 64 60 167 91 227 52
104 55 113 44 146 -16 49 -53 75 -107 75 -37 0 -50 -5 -72 -29z"/>
</g>
</svg>
