<?xml version="1.0" standalone="no"?>
<!DOCTYPE svg PUBLIC "-//W3C//DTD SVG 20010904//EN"
 "http://www.w3.org/TR/2001/REC-SVG-20010904/DTD/svg10.dtd">
<svg version="1.0" xmlns="http://www.w3.org/2000/svg"
 width="210pt" height="210pt" viewBox="1 19 210 210"
 preserveAspectRatio="xMidYMid meet">
<metadata>
Created by potrace 1.16, written by Peter Selinger 2001-2019
</metadata>
<style> @media screen and (prefers-color-scheme: light) { g { fill: #373530 } } @media screen and (prefers-color-scheme: dark) { g { fill: #D5D5D5 } }</style>
<g transform="translate(0.000000,248.000000) scale(0.100000,-0.100000)"
fill="#808080" stroke="none">
<path d="M1082 2050 c-24 -15 -42 -39 -59 -79 -21 -50 -31 -61 -64 -74 -49
-19 -82 -69 -75 -116 4 -28 -7 -55 -71 -170 -188 -335 -389 -756 -422 -886
-27 -101 -6 -178 55 -211 30 -16 44 -17 171 -6 83 8 268 11 468 10 305 -3 339
-1 455 19 69 13 139 23 157 23 43 0 100 50 109 95 9 48 -16 114 -96 254 -83
145 -284 465 -429 686 -58 88 -107 165 -109 171 -2 6 15 46 38 88 22 42 40 88
40 102 0 58 -55 114 -112 114 -13 0 -38 -9 -56 -20z m-12 -528 c165 -252 470
-741 470 -755 0 -3 -24 -11 -52 -18 -39 -10 -160 -13 -460 -14 -225 0 -408 1
-408 2 0 36 401 823 418 823 4 0 18 -17 32 -38z"/>
</g>
</svg>
